<svg width="385" height="342" viewBox="0 0 385 342" fill="none" xmlns="http://www.w3.org/2000/svg">
<path d="M263.307 257.767C263.307 273.266 263.307 288.777 263.307 304.275C263.307 311.372 265.381 313.522 272.41 313.51C287.622 313.485 302.834 313.423 318.046 313.361C325.968 313.323 326.837 314.169 326.962 322.235C326.986 324.099 326.9 325.963 327.024 327.815C327.93 341.251 327.657 341.462 314.668 341.449C289.174 341.449 263.68 341.449 238.198 341.735C233.84 341.785 231.306 340.592 231.108 336.18C230.648 326.137 230.114 316.083 230.077 306.04C229.94 274.658 230.027 243.276 230.027 211.893C230.027 204.076 231.952 202.025 239.85 202C244.991 202 250.144 202.472 255.285 202.398C261.979 202.298 263.556 205.878 263.456 211.868C263.208 227.156 263.369 242.455 263.369 257.755H263.307V257.767Z" fill="white"/>
<path d="M328.733 11.7825C344.789 11.7825 360.832 11.9353 376.887 11.7062C382.603 11.6298 385.055 13.7679 384.737 19.5204C384.483 24.1656 384.521 28.8363 384.674 33.4815C384.826 38.1522 382.73 39.8703 378.17 39.7685C369.304 39.5776 360.425 39.6412 351.546 39.7176C344.103 39.7812 342.617 41.2575 342.68 48.5626C342.934 76.0523 344.319 103.593 343.214 131.032C342.35 152.336 347.977 149.129 325.253 149.447C309.159 149.663 312.386 150.122 312.309 136.771C312.144 107.564 312.259 78.3685 312.259 49.1608C312.259 41.2066 310.76 39.7303 302.529 39.6667C294.298 39.6031 286.041 39.1703 277.836 39.6031C272.615 39.883 270.837 37.1341 270.494 33.0234C270.075 27.9836 269.833 22.8038 270.494 17.815C271.231 12.2534 276.07 11.8207 280.554 11.808C296.597 11.7571 312.652 11.7825 328.695 11.7825H328.733Z" fill="white"/>
<path d="M140.034 273.08C140.034 293.292 139.9 313.491 140.131 333.703C140.192 339.135 138.364 341.081 133.074 340.734C127.212 340.35 121.325 340.623 115.438 340.585C108.174 340.536 107.211 339.668 107.089 332.005C106.943 323.362 107.004 314.707 107.077 306.064C107.297 276.403 107.565 246.742 107.808 217.081C107.808 216.871 107.808 216.672 107.821 216.461C108.259 212.345 107.418 205.673 109.405 204.632C113.903 202.276 119.802 202.561 125.152 202.065C127.87 201.817 130.661 202.362 133.404 202.325C139.047 202.251 140.777 205.636 140.729 210.633C140.607 222.376 140.399 234.119 140.302 245.874C140.229 254.939 140.29 264.015 140.29 273.08C140.204 273.08 140.119 273.08 140.022 273.08H140.034Z" fill="white"/>
<path d="M115.422 72.4656C129.971 72.4656 143.624 72.817 157.26 72.3426C165.641 72.0439 169.103 75.0662 168.26 83.5181C167.768 88.3503 168.172 93.2879 168.172 98.7527C154.694 98.7527 142.341 99.4731 130.112 98.5418C118.497 97.6632 115.475 99.4731 115.404 111.123C115.334 121.315 115.211 131.506 115.457 141.698C115.598 147.883 112.997 150.009 106.987 149.447C102.349 149.025 97.5866 148.902 93.0004 149.517C85.6379 150.501 83.9159 146.952 83.9335 140.503C84.0389 102.267 83.8632 64.0312 83.9862 25.7954C84.0213 13.1263 86.0245 11.7733 98.2544 11.8963C120.447 12.1247 142.64 12.2126 164.833 11.7733C170.561 11.6503 171.879 13.3547 171.739 18.5735C171.141 42.5763 174.304 38.447 151.918 38.7984C142.869 38.939 133.802 39.0268 124.752 38.7457C118.479 38.5524 115.439 41.2409 115.422 47.4085C115.387 55.2806 115.422 63.1526 115.422 72.4831V72.4656Z" fill="white"/>
<path d="M251.098 83.9398C250.184 110.701 242.154 134.722 224.143 154.982C223.37 155.843 222.93 157.038 222.069 157.793C219.029 160.411 215.111 165.56 212.932 164.927C207.959 163.469 203.654 159.375 199.56 155.79C198.84 155.158 199.947 151.362 201.159 149.745C233.438 106.783 229.555 63.2756 203.426 19.3466C198.998 11.8963 200.245 6.95866 207.344 2.07376C214.672 -2.96929 217.87 2.95234 221.489 7.29253C238.411 27.4999 247.812 50.9404 251.045 76.9639C251.326 79.2658 251.08 81.638 251.08 83.975L251.098 83.9398Z" fill="white"/>
<path d="M33.6443 166.86C17.4784 146.214 3.33326 125.163 0.679946 98.4716C-2.51808 66.3858 5.58244 37.3927 24.6125 11.5097C27.4766 7.60882 31.3248 4.00664 35.5068 1.72234C37.51 0.632898 41.9029 2.23192 44.2751 3.93636C48.3693 6.85325 51.62 10.596 48.1233 16.4825C43.9588 23.476 39.847 30.5573 36.4908 37.955C19.8505 74.7675 22.662 110.368 44.4156 144.281C52.1472 156.352 52.1471 157.6 39.0739 164.014C37.3167 164.875 35.5947 165.841 33.6267 166.86H33.6443Z" fill="white"/>
</svg>
