<svg width="591" height="542" viewBox="0 0 591 542" fill="none" xmlns="http://www.w3.org/2000/svg">
<path d="M305.037 0C351.12 0.0435243 397.137 15.1176 416.543 45.3877C448.365 22.9831 490.802 31.3145 524.128 47.7334C557.455 64.1526 587.612 92.5204 589.954 130.503C592.295 168.486 546.36 170.897 531.165 157.731C515.971 144.566 507.298 114.91 530.494 107.363C541.326 101.313 565.151 115.906 550.081 126.28C538.491 131.65 547.446 145.616 557.223 142.27C572.175 135.368 564.551 115.149 557.143 105.328C533.574 70.4932 494.091 56.7585 475.203 55.041C456.314 53.3239 447.387 56.408 441.577 68.8066C437.935 75.5011 437.77 92.0139 448.366 91.46C460.575 88.5246 446.775 64.0332 469.262 68.665C512.186 96.9868 426.985 141.326 409.471 84.9424C397.862 96.1859 384.001 99.6157 369.116 98.4961C345.143 99.3208 324.53 71.2108 342.126 52.0586C349.022 40.7682 378.792 41.8527 370.224 59.3779C362.268 70.4332 377.897 78.7188 385.228 70.4922C395.505 56.2549 377.837 41.4636 365.816 36.2188C347.326 26.7203 326.125 21.6169 305.019 21.5215C283.913 21.6171 262.713 26.7205 244.223 36.2188C232.201 41.4637 214.535 56.2549 224.812 70.4922C232.143 78.7186 247.77 70.4332 239.815 59.3779C231.247 41.8526 261.018 40.7679 267.913 52.0586C285.51 71.2109 264.896 99.321 240.923 98.4961C226.038 99.6157 212.177 96.186 200.568 84.9424C183.053 141.326 97.8529 96.9868 140.777 68.665C163.264 64.0332 149.465 88.5248 161.674 91.46C172.269 92.0134 172.104 75.501 168.462 68.8066C162.652 56.4082 153.725 53.324 134.837 55.041C115.949 56.7583 76.4654 70.4929 52.8959 105.328C45.4883 115.149 37.8637 135.369 52.8158 142.27C62.5934 145.616 71.5478 131.65 59.9574 126.28C44.8877 115.906 68.713 101.313 79.5453 107.363C102.741 114.91 94.0682 144.566 78.8734 157.731C63.6784 170.897 17.7441 168.486 20.0853 130.503C22.4267 92.5204 52.5843 64.1526 85.9105 47.7334C119.237 31.3143 161.674 22.9827 193.496 45.3877C212.903 15.1181 258.918 0.0437857 305 0H305.037Z" fill="white"/>
<path d="M304.999 541.975C351.094 541.939 397.13 526.865 416.542 496.587C448.364 518.992 490.801 510.66 524.128 494.241C557.454 477.822 587.611 449.454 589.952 411.472C592.293 373.489 546.36 371.078 531.165 384.243C515.97 397.409 507.297 427.065 530.493 434.611C541.325 440.662 565.151 426.069 550.081 415.694C538.491 410.325 547.445 396.359 557.223 399.705C572.175 406.606 564.55 426.826 557.142 436.647C533.573 471.482 494.089 485.217 475.201 486.934C456.313 488.651 447.387 485.567 441.576 473.168C437.934 466.474 437.769 449.961 448.364 450.515C460.574 453.449 446.774 477.941 469.261 473.31C512.185 444.988 426.985 400.649 409.471 457.032C397.861 445.789 384.001 442.359 369.115 443.479C345.142 442.654 324.528 470.764 342.125 489.916C349.02 501.207 378.791 500.123 370.223 482.597C362.267 471.542 377.896 463.256 385.226 471.483C395.504 485.72 377.837 500.511 365.815 505.756C347.325 515.254 326.126 520.358 305.019 520.453C283.913 520.358 262.713 515.254 244.224 505.756C232.202 500.511 214.534 485.72 224.811 471.483C232.142 463.256 247.771 471.542 239.815 482.597C231.247 500.122 261.018 501.207 267.913 489.916C285.51 470.764 264.896 442.654 240.923 443.479C226.037 442.359 212.176 445.789 200.567 457.032C183.053 400.649 97.8529 444.988 140.777 473.31C163.265 477.941 149.464 453.45 161.674 450.515C172.269 449.961 172.105 466.474 168.463 473.168C162.652 485.567 153.725 488.651 134.837 486.934C115.948 485.216 76.465 471.482 52.8954 436.647C45.4879 426.826 37.8634 406.606 52.8153 399.705C62.5929 396.359 71.5473 410.325 59.9569 415.694C44.8874 426.069 68.7125 440.662 79.5448 434.611C102.74 427.065 94.0685 397.409 78.8739 384.243C63.679 371.078 17.7446 373.489 20.0858 411.472C22.4272 449.454 52.5838 477.822 85.9101 494.241C119.236 510.66 161.674 518.992 193.496 496.587C212.902 526.856 258.917 541.931 304.999 541.975Z" fill="white"/>
<path d="M525.973 253.508C525.973 269.006 525.973 284.517 525.973 300.016C525.973 307.113 528.047 309.263 535.076 309.25C550.288 309.225 565.5 309.163 580.712 309.101C588.634 309.064 589.503 309.909 589.628 317.975C589.652 319.84 589.566 321.704 589.69 323.556C590.596 336.991 590.323 337.202 577.334 337.19C551.84 337.19 526.346 337.19 500.864 337.476C496.506 337.526 493.972 336.332 493.774 331.92C493.314 321.878 492.78 311.823 492.743 301.781C492.606 270.398 492.693 239.016 492.693 207.634C492.693 199.816 494.618 197.765 502.516 197.741C507.657 197.741 512.81 198.213 517.951 198.138C524.645 198.039 526.222 201.618 526.122 207.609C525.874 222.896 526.035 238.196 526.035 253.495H525.973V253.508Z" fill="white"/>
<path d="M329.664 198.783C345.72 198.783 361.762 198.935 377.818 198.706C383.534 198.63 385.986 200.768 385.668 206.52C385.414 211.166 385.452 215.836 385.604 220.482C385.757 225.152 383.661 226.87 379.101 226.769C370.235 226.578 361.356 226.641 352.477 226.718C345.034 226.781 343.547 228.258 343.611 235.563C343.865 263.052 345.25 290.593 344.144 318.032C343.281 339.336 348.908 336.129 326.184 336.447C310.09 336.663 313.316 337.122 313.24 323.771C313.075 294.564 313.189 265.369 313.189 236.161C313.189 228.207 311.69 226.73 303.459 226.667C295.228 226.603 286.972 226.17 278.766 226.603C273.546 226.883 271.767 224.134 271.424 220.023C271.005 214.984 270.764 209.804 271.424 204.815C272.161 199.253 277.001 198.821 281.485 198.808C297.527 198.757 313.583 198.783 329.626 198.783H329.664Z" fill="white"/>
<path d="M451.495 268.82C451.495 289.032 451.361 309.232 451.592 329.444C451.653 334.875 449.825 336.822 444.535 336.475C438.673 336.09 432.786 336.363 426.899 336.326C419.635 336.276 418.672 335.408 418.55 327.745C418.404 319.102 418.465 310.447 418.538 301.804C418.757 272.143 419.026 242.483 419.269 212.822C419.269 212.611 419.269 212.413 419.282 212.202C419.72 208.085 418.879 201.414 420.866 200.372C425.363 198.016 431.263 198.301 436.613 197.805C439.331 197.557 442.122 198.103 444.864 198.066C450.508 197.991 452.238 201.377 452.19 206.374C452.068 218.117 451.86 229.859 451.763 241.615C451.69 250.679 451.751 259.756 451.751 268.82C451.665 268.82 451.58 268.82 451.483 268.82H451.495Z" fill="white"/>
<path d="M116.353 259.466C130.902 259.466 144.555 259.817 158.191 259.343C166.572 259.044 170.034 262.066 169.191 270.518C168.699 275.35 169.103 280.288 169.103 285.753C155.625 285.753 143.272 286.473 131.043 285.542C119.428 284.663 116.405 286.473 116.335 298.123C116.265 308.315 116.142 318.506 116.388 328.698C116.528 334.883 113.928 337.009 107.918 336.447C103.279 336.025 98.5175 335.902 93.9313 336.517C86.5688 337.501 84.8468 333.952 84.8644 327.503C84.9698 289.267 84.7941 251.031 84.9171 212.795C84.9522 200.126 86.9555 198.773 99.1853 198.896C121.378 199.125 143.571 199.213 165.764 198.773C171.492 198.65 172.81 200.355 172.67 205.573C172.072 229.576 175.235 225.447 152.849 225.798C143.8 225.939 134.733 226.027 125.683 225.746C119.41 225.552 116.37 228.241 116.353 234.408C116.318 242.281 116.353 250.153 116.353 259.483V259.466Z" fill="white"/>
<path d="M252.028 270.94C251.114 297.701 243.084 321.722 225.073 341.982C224.3 342.843 223.861 344.038 223 344.793C219.96 347.411 216.042 352.56 213.863 351.927C208.89 350.469 204.585 346.375 200.491 342.79C199.77 342.158 200.877 338.362 202.09 336.745C234.369 293.783 230.485 250.276 204.356 206.347C199.928 198.896 201.176 193.959 208.275 189.074C215.602 184.031 218.8 189.952 222.42 194.293C239.341 214.5 248.742 237.94 251.975 263.964C252.257 266.266 252.011 268.638 252.011 270.975L252.028 270.94Z" fill="white"/>
<path d="M34.5749 353.86C18.409 333.214 4.26392 312.163 1.61061 285.472C-1.58742 253.386 6.5131 224.393 25.5431 198.51C28.4073 194.609 32.2555 191.007 36.4375 188.722C38.4407 187.633 42.8336 189.232 45.2058 190.936C49.2999 193.853 52.5507 197.596 49.0539 203.482C44.8895 210.476 40.7777 217.557 37.4215 224.955C20.7812 261.767 23.5927 297.368 45.3463 331.281C53.0778 343.352 53.0778 344.6 40.0045 351.014C38.2474 351.875 36.5254 352.841 34.5574 353.86H34.5749Z" fill="white"/>
</svg>
