<svg width="863" height="631" viewBox="0 0 863 631" fill="none" xmlns="http://www.w3.org/2000/svg">
<path d="M848.62 312.51C878.99 270.17 852.44 204.68 810.6 183.46C807.35 181.56 806.43 179.69 808.33 176.27C819.42 158.51 811.62 124.81 787.95 124.49C763.12 129.25 814.23 162.03 772.08 175.59C733.41 179.76 697.85 129.73 697.85 129.73C683.85 111.06 670.53 94.42 660.88 83.1C631.37 41.53 574.31 1.43 525.99 38.5C509.51 12.82 470.45 0.03 431.34 0C392.23 0.03 353.17 12.82 336.7 38.51C288.38 1.44 231.32 41.54 201.81 83.11C192.17 94.43 178.84 111.07 164.84 129.74C164.84 129.74 129.28 179.78 90.61 175.6C48.46 162.04 99.56 129.26 74.74 124.5C51.07 124.82 43.27 158.53 54.36 176.28C56.26 179.7 55.34 181.56 52.09 183.47C10.25 204.69 -16.3 270.17 14.07 312.52C14.07 312.52 -12.11 335.77 6.96001 392.52C22.96 432.08 59.4 443.19 59.4 443.19C47.07 458.9 50.06 485.51 62.18 497.57C75.62 514.08 108.99 505.18 109.95 483.4C110.38 471.57 97.58 467.91 95.21 479.32C90.6 488.76 77.7 479.58 77.83 471.55C77.4 466.1 77.54 460.94 82.5 456.81C112.55 439.22 134.2 483.56 146.97 504.52C178.27 565.55 262.49 636.75 330.77 590.35C352.12 620.25 391.9 631.35 431.34 630.19C470.78 631.35 510.56 620.25 531.91 590.35C600.19 636.75 684.41 565.55 715.71 504.52C728.48 483.55 750.13 439.21 780.18 456.81C785.15 460.93 785.29 466.1 784.85 471.55C784.99 479.58 772.09 488.76 767.47 479.32C765.1 467.91 752.3 471.57 752.73 483.4C753.69 505.18 787.06 514.08 800.5 497.57C812.62 485.51 815.61 458.9 803.28 443.19C803.28 443.19 839.72 432.08 855.72 392.52C874.79 335.77 848.61 312.52 848.61 312.52L848.62 312.51ZM821.97 281.93C804.23 262.97 782.65 297.68 798.82 312.12C801.65 315 802.2 316.76 798.83 320.12C787.59 331.34 793.39 354.87 808.54 359.81C817.8 364.86 832.21 352.24 821.35 344.08C816.77 340.39 817.46 334.97 823.23 333.48C847.62 332.67 836.79 378.27 836.79 378.27C826.18 430.75 771.39 428.69 779.09 406.66C780.18 404.46 782.84 402.47 785.22 401.57C804.91 391.15 776.79 369.45 763.93 384.36C750.04 395.59 748.52 415.62 760.09 429.97C687.05 457.11 694.19 575.55 581.35 587.56C566.11 588.37 546.52 582.79 543.92 565.34C542.99 560.83 548.25 560.74 551.55 562.38C560.47 568.14 568.61 555.54 563.52 547.99C547.44 521.8 533.19 550.68 527.53 542.75C511.01 524.7 481.4 521.75 460.34 533.66C444.84 542.9 446.48 566.22 455.57 574.5C474.79 589.29 495.62 573.37 480.44 551.93C502.35 541.54 518.02 569.01 506.02 583.8C487.85 605.33 459.59 613.57 431.34 612.8C403.09 613.57 374.82 605.33 356.66 583.8C344.66 569.02 360.33 541.54 382.24 551.93C367.06 573.37 387.89 589.29 407.11 574.5C416.19 566.22 417.84 542.9 402.34 533.66C381.28 521.76 351.67 524.7 335.15 542.75C329.48 550.67 315.24 521.79 299.16 547.99C294.08 555.54 302.21 568.14 311.13 562.38C314.42 560.74 319.68 560.83 318.76 565.34C316.16 582.78 296.57 588.37 281.33 587.56C168.49 575.55 175.63 457.11 102.59 429.97C114.16 415.62 112.64 395.59 98.75 384.36C85.89 369.45 57.77 391.14 77.46 401.57C79.84 402.47 82.5 404.46 83.59 406.66C91.3 428.69 36.5 430.74 25.89 378.27C25.89 378.27 15.06 332.67 39.45 333.48C45.22 334.97 45.9 340.39 41.33 344.08C30.47 352.24 44.88 364.86 54.14 359.81C69.29 354.87 75.08 331.34 63.85 320.12C60.48 316.76 61.03 314.99 63.86 312.12C80.03 297.67 58.45 262.97 40.71 281.93C36.67 287.46 41.89 291.78 44.76 295.82C50.44 305.78 33.99 305.08 31.39 297.86C22.21 286.3 21.26 273.04 23.66 259.18C29.3 234.73 46.8 206.67 74.27 205.57C79.7 205.42 84.54 208.92 85.14 213.23C88.37 225.96 73.89 235.3 63.04 228.49C47.28 221.68 54.26 250.66 64.64 252.6C95.25 264.07 125.57 227.45 110.04 199.08C172.17 191.08 195.44 121.14 224.18 87.08C249.49 57.08 266.22 48.59 286.93 46.7C299.03 45.6 310.53 47.86 315.46 58.38C318.55 64.06 318.69 78.07 309.7 77.6C299.34 75.11 311.05 54.33 291.97 58.26C255.55 82.29 327.84 119.91 342.7 72.07C352.55 81.61 364.31 84.52 376.94 83.57C397.28 84.27 414.77 60.42 399.84 44.17C393.99 34.59 368.73 35.51 376 50.38C382.75 59.76 369.49 66.79 363.27 59.81C354.55 47.73 369.54 35.18 379.74 30.73C395.43 22.67 413.42 18.34 431.33 18.26C449.24 18.34 467.23 22.67 482.92 30.73C493.12 35.18 508.11 47.74 499.39 59.81C493.17 66.8 479.91 59.76 486.66 50.38C493.94 35.51 468.68 34.59 462.82 44.17C447.9 60.42 465.38 84.27 485.72 83.57C498.35 84.53 510.11 81.61 519.96 72.07C534.82 119.91 607.11 82.29 570.69 58.26C551.61 54.33 563.32 75.11 552.96 77.6C543.97 78.07 544.11 64.06 547.2 58.38C552.13 47.86 563.63 45.6 575.73 46.7C596.44 48.59 613.17 57.08 638.48 87.08C667.22 121.14 690.5 191.08 752.62 199.08C737.08 227.45 767.41 264.07 798.02 252.6C808.4 250.66 815.39 221.68 799.62 228.49C788.77 235.3 774.29 225.96 777.52 213.23C778.11 208.93 782.95 205.42 788.39 205.57C815.86 206.67 833.36 234.73 839 259.18C841.41 273.04 840.45 286.3 831.27 297.86C828.67 305.08 812.22 305.78 817.9 295.82C820.77 291.78 825.99 287.46 821.95 281.93H821.97Z" fill="white"/>
<path d="M483.94 305.87C483.94 298.47 484.04 291.07 483.92 283.67C483.73 271.56 483.6 259.45 483.01 247.36C482.77 242.4 485.28 240.57 489.34 240.46C494.29 240.33 499.36 240.42 504.15 241.44C505.51 241.73 506.87 245.62 506.91 247.87C507.18 263.51 507.11 279.15 507.11 294.79C507.11 310.76 507.08 326.74 507.03 342.71C507.01 348.53 506.02 348.56 500.38 349.52C487.51 351.7 480.15 346.08 473.76 335.29C464.14 319.05 452.89 303.77 442.31 288.1C441.53 286.95 440.5 285.97 439.59 284.91C439.1 284.99 438.62 285.06 438.13 285.14C437.79 287.07 437.17 288.99 437.15 290.93C437.01 305.74 437.03 320.54 436.92 335.35C436.82 349.24 436.74 349.32 423.26 349.43C410.65 349.53 413.24 349.29 413.19 339.71C413.02 309.1 413.02 278.48 412.95 247.87C412.93 241.37 413.93 240.32 420.4 240.33C422.89 240.33 425.51 241.01 427.85 240.44C435.16 238.68 438.58 242.88 442.14 248.21C454.48 266.7 467.14 284.98 479.71 303.32C480.43 304.37 481.36 305.29 482.19 306.27C482.76 306.14 483.34 306 483.91 305.87H483.94Z" fill="white"/>
<path d="M497.27 419.36C500.87 415.81 504.57 412.36 508.05 408.7C516.29 400.02 524.4 391.21 532.65 382.54C533.98 381.14 535.71 379.27 537.35 379.17C544.92 378.7 552.58 378.16 560.09 378.86C565.18 379.34 565.45 382.14 561.35 386.48C550.5 397.97 539.66 409.45 528.66 420.8C526.32 423.21 525.79 424.74 527.97 427.84C540.15 445.23 552.06 462.82 563.91 480.44C565.46 482.75 566.11 485.67 567.18 488.31C564.4 488.87 561.65 489.72 558.85 489.93C555.04 490.21 551.14 489.6 547.38 490.09C541.59 490.85 538.27 488.3 535.21 483.67C526.55 470.53 517.46 457.66 508.57 444.72C499.82 448.53 494.84 457.48 495.43 466.49C495.87 473.23 495.47 480.04 495.05 486.8C494.98 487.94 492.93 489.82 491.72 489.88C485.58 490.19 479.41 490.06 473.25 489.99C469.17 489.94 469.11 486.96 469.11 484C469.11 463.03 469.13 442.05 469.13 421.08C469.13 408.93 469.19 396.78 469.06 384.63C469.02 381.2 470.13 379.09 473.73 379.05C480.13 378.98 486.55 378.9 492.94 379.23C493.92 379.28 495.47 381.4 495.58 382.66C495.9 386.28 495.58 389.95 495.57 393.6C495.55 402.03 495.57 410.46 495.57 418.88C496.13 419.03 496.7 419.18 497.26 419.34L497.27 419.36Z" fill="white"/>
<path d="M338.02 349.32C331.3 349.32 325.17 349.08 319.07 349.4C314.95 349.62 313.69 347.51 313.57 344.12C313.38 338.8 313.37 333.47 313.33 328.15C313.3 323.32 313.13 318.48 313.42 313.67C313.72 308.7 311.34 307.34 306.84 307.41C297.03 307.56 287.21 307.47 277.39 307.41C271.79 307.38 270.33 308.67 270.29 314.36C270.23 324.01 270.14 333.67 270.37 343.31C270.47 347.6 268.96 349.42 264.61 349.24C260.13 349.05 255.63 349.28 251.14 349.28C245.69 349.28 244.5 347.81 244.53 342.46C244.62 324.02 244.49 305.59 244.6 287.15C244.68 273.18 245.03 259.22 245.16 245.25C245.19 241.67 246.64 240.13 250.29 240.25C255.28 240.42 260.28 240.38 265.27 240.25C268.91 240.15 270.36 241.75 270.33 245.32C270.24 256.47 270.21 267.62 270.29 278.76C270.33 284.97 271.49 286.1 277.48 286.13C287.3 286.18 297.13 286.08 306.95 286.16C311.48 286.2 313.52 284.5 313.41 279.64C313.17 269.17 313.32 258.69 313.47 248.21C313.56 241.55 314.83 240.42 321.36 240.37C324.69 240.35 328.02 240.29 331.35 240.3C337.42 240.3 338.54 241.43 338.51 247.64C338.46 260.13 338.33 272.61 338.3 285.1C338.26 305.24 338.27 325.39 338.25 345.53C338.25 346.66 338.13 347.79 338.04 349.31L338.02 349.32Z" fill="white"/>
<path d="M585.04 433.86C585.04 417.89 585.03 401.92 585.04 385.95C585.04 379.78 586.57 378.2 592.58 378.19C613.53 378.16 634.49 378.21 655.44 378.06C658.59 378.04 660.18 379.01 660.3 382.12C660.48 386.6 660.78 391.08 660.67 395.55C660.56 399.9 657.27 400.2 653.9 400.22C642.59 400.28 631.29 400.32 619.98 400.48C611.46 400.6 611.06 401.11 610.97 409.6C610.81 423.38 611.15 422.3 623.74 422.45C631.19 422.54 638.64 422.36 646.09 422.17C653.3 421.99 654.96 423.43 654.93 430.51C654.87 444.85 656.68 444.15 641.14 444.13C633.34 444.13 625.53 444.23 617.73 444.37C612.38 444.47 611.09 445.83 611.01 451.31C610.96 454.64 611.12 457.97 610.97 461.29C610.79 465.31 612.55 467.02 616.58 467.03C626.72 467.06 636.87 467.23 647.01 467.44C650.48 467.51 654.08 467.36 657.34 468.29C659.17 468.82 661.39 471.17 661.74 473.02C662.54 477.19 662.49 481.58 662.31 485.85C662.26 486.98 660.64 488.68 659.45 488.99C656.76 489.69 653.89 489.93 651.09 489.95C631.46 490.02 611.84 489.99 592.21 489.99C586.13 489.99 585.11 489.09 585.08 482.76C585 466.46 585.05 450.16 585.05 433.85L585.04 433.86Z" fill="white"/>
<path d="M601.33 292.86C606.94 293.25 612.58 293.41 618.13 294.2C619.53 294.4 621.66 296.52 621.74 297.87C622.33 307.01 621.97 316.1 618.69 324.84C613.36 339.03 602.66 346.98 588.32 350.04C562.4 355.57 534.7 341.06 528.89 310.44C526.56 298.18 526.17 286.07 529.9 274.16C536.93 251.72 555.18 238.44 578.65 238.1C598.49 237.81 612.85 246.46 621.86 264.18C623.39 267.19 622.94 268.63 619.75 269.72C614.78 271.41 609.97 273.65 604.94 275.09C603.55 275.48 600.85 274.31 600 273.03C595.94 266.9 591.42 261.62 583.68 260.27C571.52 258.15 561.11 262.66 556.16 274.02C549.51 289.27 549.51 304.77 558.98 319.16C565.83 329.57 579.96 332.43 590.2 325.92C591.86 324.87 593.69 323.57 594.54 321.91C595.77 319.52 596.16 316.71 596.91 314.08C594.64 313.46 592.39 312.4 590.1 312.31C579.6 311.92 579.6 312.02 579.92 301.26C580.14 293.99 580.54 293.55 587.82 293.26C590.15 293.17 601.32 292.99 601.32 292.87L601.33 292.86Z" fill="white"/>
<path d="M658.59 347.95C649.73 344.06 643.53 338.1 638.24 330.51C636.59 328.14 636.88 326.15 639.13 324.5C643.53 321.27 647.99 318.11 652.45 314.96C655.31 312.94 656.5 315.09 657.87 317.13C663.65 325.75 671.88 330.57 682.15 329.9C686.56 329.61 691.36 327.06 694.92 324.21C699.64 320.44 698.29 312.88 692.06 309.78C684.89 306.21 677.08 303.85 669.45 301.26C660.67 298.28 652.48 294.25 646.54 287.03C634.52 272.42 640.42 252.06 657.26 242.81C675.38 232.87 701.78 236.98 716.08 251.83C721.15 257.09 721.06 258.67 715.51 263.41C714.37 264.38 713.32 265.45 712.25 266.49C706.57 272.04 705.48 272.02 699.63 266.75C693.16 260.92 685.28 258.72 677.02 260.5C673.97 261.16 670.61 264.74 669.24 267.81C667.4 271.93 669.32 276.3 673.75 278.08C680.47 280.79 687.42 282.96 694.33 285.18C702.89 287.93 710.31 292.29 716.17 299.25C729.31 314.88 719.83 337.68 706.14 345.06C698.15 349.37 689.11 353.28 679.81 352.39C679.75 352.79 665.94 351.16 658.57 347.93L658.59 347.95Z" fill="white"/>
<path d="M340.22 423.25C340.22 435.72 340.22 448.2 340.22 460.67C340.22 466.38 341.89 468.11 347.55 468.1C359.8 468.08 372.05 468.03 384.3 467.98C390.68 467.95 391.38 468.63 391.48 475.12C391.5 476.62 391.43 478.12 391.53 479.61C392.26 490.42 392.04 490.59 381.58 490.58C361.05 490.58 340.52 490.58 320 490.81C316.49 490.85 314.45 489.89 314.29 486.34C313.92 478.26 313.49 470.17 313.46 462.09C313.35 436.84 313.42 411.59 313.42 386.34C313.42 380.05 314.97 378.4 321.33 378.38C325.47 378.38 329.62 378.76 333.76 378.7C339.15 378.62 340.42 381.5 340.34 386.32C340.14 398.62 340.27 410.93 340.27 423.24H340.22V423.25Z" fill="white"/>
<path d="M186.38 241.29C199.02 241.29 211.65 241.41 224.29 241.23C228.79 241.17 230.72 242.85 230.47 247.37C230.27 251.02 230.3 254.69 230.42 258.34C230.54 262.01 228.89 263.36 225.3 263.28C218.32 263.13 211.33 263.18 204.34 263.24C198.48 263.29 197.31 264.45 197.36 270.19C197.56 291.79 198.65 313.43 197.78 334.99C197.1 351.73 201.53 349.21 183.64 349.46C170.97 349.63 173.51 349.99 173.45 339.5C173.32 316.55 173.41 293.61 173.41 270.66C173.41 264.41 172.23 263.25 165.75 263.2C159.27 263.15 152.77 262.81 146.31 263.15C142.2 263.37 140.8 261.21 140.53 257.98C140.2 254.02 140.01 249.95 140.53 246.03C141.11 241.66 144.92 241.32 148.45 241.31C161.08 241.27 173.72 241.29 186.35 241.29H186.38Z" fill="white"/>
<path d="M423.44 204.25C417.85 204.25 413.02 204.52 408.26 204.1C406.63 203.96 404.63 202.41 403.71 200.93C399.67 194.48 396.22 187.66 391.99 181.35C390.67 179.39 387.68 177.83 385.26 177.48C381.11 176.89 380.02 180.24 379.95 183.66C379.84 188.98 379.86 194.3 380.01 199.62C380.1 202.92 379.05 204.42 375.43 204.32C361.09 203.96 362.2 205.94 362.21 191.25C362.23 171.13 362.27 151.02 362.16 130.9C362.14 127.47 363.04 125.39 366.74 125.47C379.51 125.74 392.31 125.59 405.03 126.5C416.85 127.34 424.53 137.02 426.64 145.85C428.75 154.65 426.02 166.48 415.44 173.1C408.87 177.21 409.05 177.34 413.14 184.02C416.42 189.36 419.55 194.79 422.63 200.24C423.14 201.15 423.09 202.39 423.44 204.25ZM390.01 141.03C389.99 141.14 386.85 140.78 385.37 140.64C381.21 140.25 379.38 142.71 379.14 146.92C378.45 159.06 379.64 162.75 384.73 163.34C384.89 163.36 396.95 161.92 402.7 160.68C407.41 159.66 409.21 155.85 409.14 151.33C409.07 146.55 406.18 143.62 401.76 142.6C397.93 141.71 393.93 141.53 390 141.03H390.01Z" fill="white"/>
<path d="M237.46 435.58C237.46 451.88 237.35 468.17 237.54 484.47C237.59 488.85 236.09 490.42 231.75 490.14C226.94 489.83 222.11 490.05 217.28 490.02C211.32 489.98 210.53 489.28 210.43 483.1C210.31 476.13 210.36 469.15 210.42 462.18C210.6 438.26 210.82 414.34 211.02 390.42C211.02 390.25 211.02 390.09 211.03 389.92C211.39 386.6 210.7 381.22 212.33 380.38C216.02 378.48 220.86 378.71 225.25 378.31C227.48 378.11 229.77 378.55 232.02 378.52C236.65 378.46 238.07 381.19 238.03 385.22C237.93 394.69 237.76 404.16 237.68 413.64C237.62 420.95 237.67 428.27 237.67 435.58C237.6 435.58 237.53 435.58 237.45 435.58H237.46Z" fill="white"/>
<path d="M462.09 188.52C471.77 188.52 480.86 188.54 489.95 188.52C496.88 188.5 501.19 194.04 498.73 200.59C498.12 202.23 495.27 204.01 493.41 204.04C478.61 204.32 463.8 204.18 448.99 204.2C444.81 204.2 444.67 201.06 444.62 198.31C444.42 188.01 444.44 177.71 444.4 167.41C444.36 156.28 444.34 145.15 444.33 134.02C444.33 125.83 444.73 125.82 453.02 125.94C465.45 126.13 477.89 125.85 490.32 125.57C494.09 125.49 496.19 126.15 496.17 130.66C496.13 141.37 496.31 141.37 485.61 141.36C479.12 141.36 472.62 141.45 466.14 141.3C463.13 141.23 462.13 142.35 462.04 145.37C461.7 156.68 461.91 156.98 473.17 156.94C477.99 156.92 482.81 156.9 487.62 157.05C491.66 157.17 493.37 159.7 493 165.31C492.77 168.77 492.66 172.47 487.37 172.29C480.56 172.07 473.74 172.34 466.93 172.27C463.61 172.24 461.98 173.55 462.09 176.99C462.2 180.47 462.11 183.96 462.11 188.51L462.09 188.52Z" fill="white"/>
<path d="M413.21 434C413.21 417.7 413.32 401.39 413.14 385.09C413.09 380.82 414.85 378.79 418.88 378.79C424.47 378.79 430.11 378.71 435.62 379.42C437.07 379.61 439.18 382.54 439.26 384.28C439.59 392.23 439.24 400.2 439.24 408.16C439.22 432.45 439.25 456.74 439.26 481.02C439.26 482.52 439.23 484.01 439.22 485.51C439.2 488.78 437.77 490.29 434.3 490.12C429.65 489.89 424.99 490 420.33 490.02C414 490.04 413.22 489.37 413.2 482.91C413.16 466.77 413.19 450.64 413.2 434.5C413.2 434.33 413.2 434.17 413.2 434H413.22H413.21Z" fill="white"/>
<path d="M517.92 164.19C517.92 153.55 517.96 142.91 517.9 132.27C517.87 126.1 517.8 126.38 524.07 126.33C537.97 126.21 551.86 125.76 565.76 125.52C566.63 125.51 568.25 126.12 568.28 126.53C568.59 130.62 569.18 134.84 568.42 138.77C568.18 140.01 564.14 141.12 561.78 141.23C554.64 141.55 547.47 141.49 540.32 141.3C536.85 141.21 535.45 142.88 535.17 145.94C535.01 147.59 535.23 149.28 535.08 150.93C534.65 155.5 536.97 157.32 541.23 157.33C547.55 157.33 553.88 157.45 560.2 157.3C564.28 157.2 566.07 159.14 565.94 162.98C565.81 166.78 567.03 171.59 560.83 171.82C554.52 172.05 548.2 172.37 541.91 172.08C537.02 171.86 535.34 174.21 535.07 178.48C535.05 178.81 535.07 179.15 535.05 179.48C534.857 185.3 537.62 188.267 543.34 188.38C550.65 188.53 557.96 188.75 565.26 188.82C569.32 188.86 570.56 190.81 570.66 194.75C570.88 204.28 571.06 204.26 561.46 204.26C548.98 204.26 536.5 204.13 524.02 204.34C519.75 204.41 517.97 202.94 518.02 198.62C518.15 187.14 518.06 175.66 518.06 164.18H517.91L517.92 164.19Z" fill="white"/>
<path d="M389.15 295.44C389.15 311.23 389 327.02 389.24 342.81C389.31 347.77 387.71 349.72 382.68 349.3C378.39 348.94 374.02 348.98 369.72 349.3C365.25 349.64 363.79 347.59 363.85 343.51C364.02 332.38 364.19 321.24 364.19 310.1C364.19 289.33 364.05 268.55 364.05 247.78C364.05 241.77 365.34 240.46 371.35 240.39C375.65 240.34 379.96 240.85 384.27 240.85C387.93 240.85 389.22 242.5 389.2 246.04C389.11 262.5 389.16 278.96 389.16 295.42L389.15 295.44Z" fill="white"/>
<path d="M311.25 160.5C319.53 160.5 327.3 160.7 335.06 160.43C339.83 160.26 341.8 161.98 341.32 166.79C341.04 169.54 341.27 172.35 341.27 175.46C333.6 175.46 326.57 175.87 319.61 175.34C313 174.84 311.28 175.87 311.24 182.5C311.2 188.3 311.13 194.1 311.27 199.9C311.35 203.42 309.87 204.63 306.45 204.31C303.81 204.07 301.1 204 298.49 204.35C294.3 204.91 293.32 202.89 293.33 199.22C293.39 177.46 293.29 155.7 293.36 133.94C293.38 126.73 294.52 125.96 301.48 126.03C314.11 126.16 326.74 126.21 339.37 125.96C342.63 125.89 343.38 126.86 343.3 129.83C342.96 143.49 344.76 141.14 332.02 141.34C326.87 141.42 321.71 141.47 316.56 141.31C312.99 141.2 311.26 142.73 311.25 146.24C311.23 150.72 311.25 155.2 311.25 160.51V160.5Z" fill="white"/>
<path d="M617.83 167.03C617.31 182.26 612.74 195.93 602.49 207.46C602.05 207.95 601.8 208.63 601.31 209.06C599.58 210.55 597.35 213.48 596.11 213.12C593.28 212.29 590.83 209.96 588.5 207.92C588.09 207.56 588.72 205.4 589.41 204.48C607.78 180.03 605.57 155.27 590.7 130.27C588.18 126.03 588.89 123.22 592.93 120.44C597.1 117.57 598.92 120.94 600.98 123.41C610.61 134.91 615.96 148.25 617.8 163.06C617.96 164.37 617.82 165.72 617.82 167.05L617.83 167.03Z" fill="white"/>
<path d="M264.71 214.22C255.51 202.47 247.46 190.49 245.95 175.3C244.13 157.04 248.74 140.54 259.57 125.81C261.2 123.59 263.39 121.54 265.77 120.24C266.91 119.62 269.41 120.53 270.76 121.5C273.09 123.16 274.94 125.29 272.95 128.64C270.58 132.62 268.24 136.65 266.33 140.86C256.86 161.81 258.46 182.07 270.84 201.37C275.24 208.24 275.24 208.95 267.8 212.6C266.8 213.09 265.82 213.64 264.7 214.22H264.71Z" fill="white"/>
</svg>
