<?xml version="1.0" encoding="UTF-8"?>
<svg id="Livello_2" xmlns="http://www.w3.org/2000/svg" viewBox="0 0 862.69 630.26">
  <g id="Layer_1">
    <g>
      <path d="M848.62,312.51c30.37-42.34,3.82-107.83-38.02-129.05-3.25-1.9-4.17-3.77-2.27-7.19,11.09-17.76,3.29-51.46-20.38-51.78-24.83,4.76,26.28,37.54-15.87,51.1-38.67,4.17-74.23-45.86-74.23-45.86-14-18.67-27.32-35.31-36.97-46.63-29.51-41.57-86.57-81.67-134.89-44.6C509.51,12.82,470.45.03,431.34,0c-39.11.03-78.17,12.82-94.64,38.51-48.32-37.07-105.38,3.03-134.89,44.6-9.64,11.32-22.97,27.96-36.97,46.63,0,0-35.56,50.04-74.23,45.86-42.15-13.56,8.95-46.34-15.87-51.1-23.67.32-31.47,34.03-20.38,51.78,1.9,3.42.98,5.28-2.27,7.19-41.84,21.22-68.39,86.7-38.02,129.05,0,0-26.18,23.25-7.11,80,16,39.56,52.44,50.67,52.44,50.67-12.33,15.71-9.34,42.32,2.78,54.38,13.44,16.51,46.81,7.61,47.77-14.17.43-11.83-12.37-15.49-14.74-4.08-4.61,9.44-17.51.26-17.38-7.77-.43-5.45-.29-10.61,4.67-14.74,30.05-17.59,51.7,26.75,64.47,47.71,31.3,61.03,115.52,132.23,183.8,85.83,21.35,29.9,61.13,41,100.57,39.84,39.44,1.16,79.22-9.94,100.57-39.84,68.28,46.4,152.5-24.8,183.8-85.83,12.77-20.97,34.42-65.31,64.47-47.71,4.97,4.12,5.11,9.29,4.67,14.74.14,8.03-12.76,17.21-17.38,7.77-2.37-11.41-15.17-7.75-14.74,4.08.96,21.78,34.33,30.68,47.77,14.17,12.12-12.06,15.11-38.67,2.78-54.38,0,0,36.44-11.11,52.44-50.67,19.07-56.75-7.11-80-7.11-80ZM821.97,281.93c-17.74-18.96-39.32,15.75-23.15,30.19,2.83,2.88,3.38,4.64.01,8-11.24,11.22-5.44,34.75,9.71,39.69,9.26,5.05,23.67-7.57,12.81-15.73-4.58-3.69-3.89-9.11,1.88-10.6,24.39-.81,13.56,44.79,13.56,44.79-10.61,52.48-65.4,50.42-57.7,28.39,1.09-2.2,3.75-4.19,6.13-5.09,19.69-10.42-8.43-32.12-21.29-17.21-13.89,11.23-15.41,31.26-3.84,45.61-73.04,27.14-65.9,145.58-178.74,157.59-15.24.81-34.83-4.77-37.43-22.22-.93-4.51,4.33-4.6,7.63-2.96,8.92,5.76,17.06-6.84,11.97-14.39-16.08-26.19-30.33,2.69-35.99-5.24-16.52-18.05-46.13-21-67.19-9.09-15.5,9.24-13.86,32.56-4.77,40.84,19.22,14.79,40.05-1.13,24.87-22.57,21.91-10.39,37.58,17.08,25.58,31.87-18.17,21.53-46.43,29.77-74.68,29-28.25.77-56.52-7.47-74.68-29-12-14.78,3.67-42.26,25.58-31.87-15.18,21.44,5.65,37.36,24.87,22.57,9.08-8.28,10.73-31.6-4.77-40.84-21.06-11.9-50.67-8.96-67.19,9.09-5.67,7.92-19.91-20.96-35.99,5.24-5.08,7.55,3.05,20.15,11.97,14.39,3.29-1.64,8.55-1.55,7.63,2.96-2.6,17.44-22.19,23.03-37.43,22.22-112.84-12.01-105.7-130.45-178.74-157.59,11.57-14.35,10.05-34.38-3.84-45.61-12.86-14.91-40.98,6.78-21.29,17.21,2.38.9,5.04,2.89,6.13,5.09,7.71,22.03-47.09,24.08-57.7-28.39,0,0-10.83-45.6,13.56-44.79,5.77,1.49,6.45,6.91,1.88,10.6-10.86,8.16,3.55,20.78,12.81,15.73,15.15-4.94,20.94-28.47,9.71-39.69-3.37-3.36-2.82-5.13.01-8,16.17-14.45-5.41-49.15-23.15-30.19-4.04,5.53,1.18,9.85,4.05,13.89,5.68,9.96-10.77,9.26-13.37,2.04-9.18-11.56-10.13-24.82-7.73-38.68,5.64-24.45,23.14-52.51,50.61-53.61,5.43-.15,10.27,3.35,10.87,7.66,3.23,12.73-11.25,22.07-22.1,15.26-15.76-6.81-8.78,22.17,1.6,24.11,30.61,11.47,60.93-25.15,45.4-53.52,62.13-8,85.4-77.94,114.14-112,25.31-30,42.04-38.49,62.75-40.38,12.1-1.1,23.6,1.16,28.53,11.68,3.09,5.68,3.23,19.69-5.76,19.22-10.36-2.49,1.35-23.27-17.73-19.34-36.42,24.03,35.87,61.65,50.73,13.81,9.85,9.54,21.61,12.45,34.24,11.5,20.34.7,37.83-23.15,22.9-39.4-5.85-9.58-31.11-8.66-23.84,6.21,6.75,9.38-6.51,16.41-12.73,9.43-8.72-12.08,6.27-24.63,16.47-29.08,15.69-8.06,33.68-12.39,51.59-12.47,17.91.08,35.9,4.41,51.59,12.47,10.2,4.45,25.19,17.01,16.47,29.08-6.22,6.99-19.48-.05-12.73-9.43,7.28-14.87-17.98-15.79-23.84-6.21-14.92,16.25,2.56,40.1,22.9,39.4,12.63.96,24.39-1.96,34.24-11.5,14.86,47.84,87.15,10.22,50.73-13.81-19.08-3.93-7.37,16.85-17.73,19.34-8.99.47-8.85-13.54-5.76-19.22,4.93-10.52,16.43-12.78,28.53-11.68,20.71,1.89,37.44,10.38,62.75,40.38,28.74,34.06,52.02,104,114.14,112-15.54,28.37,14.79,64.99,45.4,53.52,10.38-1.94,17.37-30.92,1.6-24.11-10.85,6.81-25.33-2.53-22.1-15.26.59-4.3,5.43-7.81,10.87-7.66,27.47,1.1,44.97,29.16,50.61,53.61,2.41,13.86,1.45,27.12-7.73,38.68-2.6,7.22-19.05,7.92-13.37-2.04,2.87-4.04,8.09-8.36,4.05-13.89Z"/>
      <g>
        <path d="M483.94,305.87c0-7.4.1-14.8-.02-22.2-.19-12.11-.32-24.22-.91-36.31-.24-4.96,2.27-6.79,6.33-6.9,4.95-.13,10.02-.04,14.81.98,1.36.29,2.72,4.18,2.76,6.43.27,15.64.2,31.28.2,46.92,0,15.97-.03,31.95-.08,47.92-.02,5.82-1.01,5.85-6.65,6.81-12.87,2.18-20.23-3.44-26.62-14.23-9.62-16.24-20.87-31.52-31.45-47.19-.78-1.15-1.81-2.13-2.72-3.19-.49.08-.97.15-1.46.23-.34,1.93-.96,3.85-.98,5.79-.14,14.81-.12,29.61-.23,44.42-.1,13.89-.18,13.97-13.66,14.08-12.61.1-10.02-.14-10.07-9.72-.17-30.61-.17-61.23-.24-91.84-.02-6.5.98-7.55,7.45-7.54,2.49,0,5.11.68,7.45.11,7.31-1.76,10.73,2.44,14.29,7.77,12.34,18.49,25,36.77,37.57,55.11.72,1.05,1.65,1.97,2.48,2.95.57-.13,1.15-.27,1.72-.4Z"/>
        <path d="M497.27,419.36c3.6-3.55,7.3-7,10.78-10.66,8.24-8.68,16.35-17.49,24.6-26.16,1.33-1.4,3.06-3.27,4.7-3.37,7.57-.47,15.23-1.01,22.74-.31,5.09.48,5.36,3.28,1.26,7.62-10.85,11.49-21.69,22.97-32.69,34.32-2.34,2.41-2.87,3.94-.69,7.04,12.18,17.39,24.09,34.98,35.94,52.6,1.55,2.31,2.2,5.23,3.27,7.87-2.78.56-5.53,1.41-8.33,1.62-3.81.28-7.71-.33-11.47.16-5.79.76-9.11-1.79-12.17-6.42-8.66-13.14-17.75-26.01-26.64-38.95-8.75,3.81-13.73,12.76-13.14,21.77.44,6.74.04,13.55-.38,20.31-.07,1.14-2.12,3.02-3.33,3.08-6.14.31-12.31.18-18.47.11-4.08-.05-4.14-3.03-4.14-5.99,0-20.97.02-41.95.02-62.92,0-12.15.06-24.3-.07-36.45-.04-3.43,1.07-5.54,4.67-5.58,6.4-.07,12.82-.15,19.21.18.98.05,2.53,2.17,2.64,3.43.32,3.62,0,7.29-.01,10.94-.02,8.43,0,16.86,0,25.28.56.15,1.13.3,1.69.46Z"/>
        <path d="M338.02,349.32c-6.72,0-12.85-.24-18.95.08-4.12.22-5.38-1.89-5.5-5.28-.19-5.32-.2-10.65-.24-15.97-.03-4.83-.2-9.67.09-14.48.3-4.97-2.08-6.33-6.58-6.26-9.81.15-19.63.06-29.45,0-5.6-.03-7.06,1.26-7.1,6.95-.06,9.65-.15,19.31.08,28.95.1,4.29-1.41,6.11-5.76,5.93-4.48-.19-8.98.04-13.47.04-5.45,0-6.64-1.47-6.61-6.82.09-18.44-.04-36.87.07-55.31.08-13.97.43-27.93.56-41.9.03-3.58,1.48-5.12,5.13-5,4.99.17,9.99.13,14.98,0,3.64-.1,5.09,1.5,5.06,5.07-.09,11.15-.12,22.3-.04,33.44.04,6.21,1.2,7.34,7.19,7.37,9.82.05,19.65-.05,29.47.03,4.53.04,6.57-1.66,6.46-6.52-.24-10.47-.09-20.95.06-31.43.09-6.66,1.36-7.79,7.89-7.84,3.33-.02,6.66-.08,9.99-.07,6.07,0,7.19,1.13,7.16,7.34-.05,12.49-.18,24.97-.21,37.46-.04,20.14-.03,40.29-.05,60.43,0,1.13-.12,2.26-.21,3.78Z"/>
        <path d="M585.04,433.86c0-15.97-.01-31.94,0-47.91,0-6.17,1.53-7.75,7.54-7.76,20.95-.03,41.91.02,62.86-.13,3.15-.02,4.74.95,4.86,4.06.18,4.48.48,8.96.37,13.43-.11,4.35-3.4,4.65-6.77,4.67-11.31.06-22.61.1-33.92.26-8.52.12-8.92.63-9.01,9.12-.16,13.78.18,12.7,12.77,12.85,7.45.09,14.9-.09,22.35-.28,7.21-.18,8.87,1.26,8.84,8.34-.06,14.34,1.75,13.64-13.79,13.62-7.8,0-15.61.1-23.41.24-5.35.1-6.64,1.46-6.72,6.94-.05,3.33.11,6.66-.04,9.98-.18,4.02,1.58,5.73,5.61,5.74,10.14.03,20.29.2,30.43.41,3.47.07,7.07-.08,10.33.85,1.83.53,4.05,2.88,4.4,4.73.8,4.17.75,8.56.57,12.83-.05,1.13-1.67,2.83-2.86,3.14-2.69.7-5.56.94-8.36.96-19.63.07-39.25.04-58.88.04-6.08,0-7.1-.9-7.13-7.23-.08-16.3-.03-32.6-.03-48.91Z"/>
        <path d="M601.33,292.86c5.61.39,11.25.55,16.8,1.34,1.4.2,3.53,2.32,3.61,3.67.59,9.14.23,18.23-3.05,26.97-5.33,14.19-16.03,22.14-30.37,25.2-25.92,5.53-53.62-8.98-59.43-39.6-2.33-12.26-2.72-24.37,1.01-36.28,7.03-22.44,25.28-35.72,48.75-36.06,19.84-.29,34.2,8.36,43.21,26.08,1.53,3.01,1.08,4.45-2.11,5.54-4.97,1.69-9.78,3.93-14.81,5.37-1.39.39-4.09-.78-4.94-2.06-4.06-6.13-8.58-11.41-16.32-12.76-12.16-2.12-22.57,2.39-27.52,13.75-6.65,15.25-6.65,30.75,2.82,45.14,6.85,10.41,20.98,13.27,31.22,6.76,1.66-1.05,3.49-2.35,4.34-4.01,1.23-2.39,1.62-5.2,2.37-7.83-2.27-.62-4.52-1.68-6.81-1.77-10.5-.39-10.5-.29-10.18-11.05.22-7.27.62-7.71,7.9-8,2.33-.09,13.5-.27,13.5-.39Z"/>
        <path d="M658.59,347.95c-8.86-3.89-15.06-9.85-20.35-17.44-1.65-2.37-1.36-4.36.89-6.01,4.4-3.23,8.86-6.39,13.32-9.54,2.86-2.02,4.05.13,5.42,2.17,5.78,8.62,14.01,13.44,24.28,12.77,4.41-.29,9.21-2.84,12.77-5.69,4.72-3.77,3.37-11.33-2.86-14.43-7.17-3.57-14.98-5.93-22.61-8.52-8.78-2.98-16.97-7.01-22.91-14.23-12.02-14.61-6.12-34.97,10.72-44.22,18.12-9.94,44.52-5.83,58.82,9.02,5.07,5.26,4.98,6.84-.57,11.58-1.14.97-2.19,2.04-3.26,3.08-5.68,5.55-6.77,5.53-12.62.26-6.47-5.83-14.35-8.03-22.61-6.25-3.05.66-6.41,4.24-7.78,7.31-1.84,4.12.08,8.49,4.51,10.27,6.72,2.71,13.67,4.88,20.58,7.1,8.56,2.75,15.98,7.11,21.84,14.07,13.14,15.63,3.66,38.43-10.03,45.81-7.99,4.31-17.03,8.22-26.33,7.33-.06.4-13.87-1.23-21.24-4.46Z"/>
        <path d="M340.22,423.25c0,12.47,0,24.95,0,37.42,0,5.71,1.67,7.44,7.33,7.43,12.25-.02,24.5-.07,36.75-.12,6.38-.03,7.08.65,7.18,7.14.02,1.5-.05,3,.05,4.49.73,10.81.51,10.98-9.95,10.97-20.53,0-41.06,0-61.58.23-3.51.04-5.55-.92-5.71-4.47-.37-8.08-.8-16.17-.83-24.25-.11-25.25-.04-50.5-.04-75.75,0-6.29,1.55-7.94,7.91-7.96,4.14,0,8.29.38,12.43.32,5.39-.08,6.66,2.8,6.58,7.62-.2,12.3-.07,24.61-.07,36.92h-.05Z"/>
        <path d="M186.38,241.29c12.64,0,25.27.12,37.91-.06,4.5-.06,6.43,1.62,6.18,6.14-.2,3.65-.17,7.32-.05,10.97.12,3.67-1.53,5.02-5.12,4.94-6.98-.15-13.97-.1-20.96-.04-5.86.05-7.03,1.21-6.98,6.95.2,21.6,1.29,43.24.42,64.8-.68,16.74,3.75,14.22-14.14,14.47-12.67.17-10.13.53-10.19-9.96-.13-22.95-.04-45.89-.04-68.84,0-6.25-1.18-7.41-7.66-7.46-6.48-.05-12.98-.39-19.44-.05-4.11.22-5.51-1.94-5.78-5.17-.33-3.96-.52-8.03,0-11.95.58-4.37,4.39-4.71,7.92-4.72,12.63-.04,25.27-.02,37.9-.02Z"/>
        <path d="M423.44,204.25c-5.59,0-10.42.27-15.18-.15-1.63-.14-3.63-1.69-4.55-3.17-4.04-6.45-7.49-13.27-11.72-19.58-1.32-1.96-4.31-3.52-6.73-3.87-4.15-.59-5.24,2.76-5.31,6.18-.11,5.32-.09,10.64.06,15.96.09,3.3-.96,4.8-4.58,4.7-14.34-.36-13.23,1.62-13.22-13.07.02-20.12.06-40.23-.05-60.35-.02-3.43.88-5.51,4.58-5.43,12.77.27,25.57.12,38.29,1.03,11.82.84,19.5,10.52,21.61,19.35,2.11,8.8-.62,20.63-11.2,27.25-6.57,4.11-6.39,4.24-2.3,10.92,3.28,5.34,6.41,10.77,9.49,16.22.51.91.46,2.15.81,4.01ZM390.01,141.03c-.02.11-3.16-.25-4.64-.39-4.16-.39-5.99,2.07-6.23,6.28-.69,12.14.5,15.83,5.59,16.42.16.02,12.22-1.42,17.97-2.66,4.71-1.02,6.51-4.83,6.44-9.35-.07-4.78-2.96-7.71-7.38-8.73-3.83-.89-7.83-1.07-11.76-1.57Z"/>
        <path d="M237.46,435.58c0,16.3-.11,32.59.08,48.89.05,4.38-1.45,5.95-5.79,5.67-4.81-.31-9.64-.09-14.47-.12-5.96-.04-6.75-.74-6.85-6.92-.12-6.97-.07-13.95-.01-20.92.18-23.92.4-47.84.6-71.76,0-.17,0-.33.01-.5.36-3.32-.33-8.7,1.3-9.54,3.69-1.9,8.53-1.67,12.92-2.07,2.23-.2,4.52.24,6.77.21,4.63-.06,6.05,2.67,6.01,6.7-.1,9.47-.27,18.94-.35,28.42-.06,7.31-.01,14.63-.01,21.94-.07,0-.14,0-.22,0Z"/>
        <path d="M462.09,188.52c9.68,0,18.77.02,27.86,0,6.93-.02,11.24,5.52,8.78,12.07-.61,1.64-3.46,3.42-5.32,3.45-14.8.28-29.61.14-44.42.16-4.18,0-4.32-3.14-4.37-5.89-.2-10.3-.18-20.6-.22-30.9-.04-11.13-.06-22.26-.07-33.39,0-8.19.4-8.2,8.69-8.08,12.43.19,24.87-.09,37.3-.37,3.77-.08,5.87.58,5.85,5.09-.04,10.71.14,10.71-10.56,10.7-6.49,0-12.99.09-19.47-.06-3.01-.07-4.01,1.05-4.1,4.07-.34,11.31-.13,11.61,11.13,11.57,4.82-.02,9.64-.04,14.45.11,4.04.12,5.75,2.65,5.38,8.26-.23,3.46-.34,7.16-5.63,6.98-6.81-.22-13.63.05-20.44-.02-3.32-.03-4.95,1.28-4.84,4.72.11,3.48.02,6.97.02,11.52Z"/>
        <path d="M413.21,434c0-16.3.11-32.61-.07-48.91-.05-4.27,1.71-6.3,5.74-6.3,5.59,0,11.23-.08,16.74.63,1.45.19,3.56,3.12,3.64,4.86.33,7.95-.02,15.92-.02,23.88-.02,24.29.01,48.58.02,72.86,0,1.5-.03,2.99-.04,4.49-.02,3.27-1.45,4.78-4.92,4.61-4.65-.23-9.31-.12-13.97-.1-6.33.02-7.11-.65-7.13-7.11-.04-16.14-.01-32.27,0-48.41,0-.17,0-.33,0-.5h.02Z"/>
        <path d="M517.92,164.19c0-10.64.04-21.28-.02-31.92-.03-6.17-.1-5.89,6.17-5.94,13.9-.12,27.79-.57,41.69-.81.87-.01,2.49.6,2.52,1.01.31,4.09.9,8.31.14,12.24-.24,1.24-4.28,2.35-6.64,2.46-7.14.32-14.31.26-21.46.07-3.47-.09-4.87,1.58-5.15,4.64-.16,1.65.06,3.34-.09,4.99-.43,4.57,1.89,6.39,6.15,6.4,6.32,0,12.65.12,18.97-.03,4.08-.1,5.87,1.84,5.74,5.68-.13,3.8,1.09,8.61-5.11,8.84-6.31.23-12.63.55-18.92.26-4.89-.22-6.57,2.13-6.84,6.4-.02.33,0,.67-.02,1q-.29,8.73,8.29,8.9c7.31.15,14.62.37,21.92.44,4.06.04,5.3,1.99,5.4,5.93.22,9.53.4,9.51-9.2,9.51-12.48,0-24.96-.13-37.44.08-4.27.07-6.05-1.4-6-5.72.13-11.48.04-22.96.04-34.44h-.15Z"/>
        <path d="M389.15,295.44c0,15.79-.15,31.58.09,47.37.07,4.96-1.53,6.91-6.56,6.49-4.29-.36-8.66-.32-12.96,0-4.47.34-5.93-1.71-5.87-5.79.17-11.13.34-22.27.34-33.41,0-20.77-.14-41.55-.14-62.32,0-6.01,1.29-7.32,7.3-7.39,4.3-.05,8.61.46,12.92.46,3.66,0,4.95,1.65,4.93,5.19-.09,16.46-.04,32.92-.04,49.38Z"/>
        <path d="M311.25,160.5c8.28,0,16.05.2,23.81-.07,4.77-.17,6.74,1.55,6.26,6.36-.28,2.75-.05,5.56-.05,8.67-7.67,0-14.7.41-21.66-.12-6.61-.5-8.33.53-8.37,7.16-.04,5.8-.11,11.6.03,17.4.08,3.52-1.4,4.73-4.82,4.41-2.64-.24-5.35-.31-7.96.04-4.19.56-5.17-1.46-5.16-5.13.06-21.76-.04-43.52.03-65.28.02-7.21,1.16-7.98,8.12-7.91,12.63.13,25.26.18,37.89-.07,3.26-.07,4.01.9,3.93,3.87-.34,13.66,1.46,11.31-11.28,11.51-5.15.08-10.31.13-15.46-.03-3.57-.11-5.3,1.42-5.31,4.93-.02,4.48,0,8.96,0,14.27Z"/>
        <path d="M617.83,167.03c-.52,15.23-5.09,28.9-15.34,40.43-.44.49-.69,1.17-1.18,1.6-1.73,1.49-3.96,4.42-5.2,4.06-2.83-.83-5.28-3.16-7.61-5.2-.41-.36.22-2.52.91-3.44,18.37-24.45,16.16-49.21,1.29-74.21-2.52-4.24-1.81-7.05,2.23-9.83,4.17-2.87,5.99.5,8.05,2.97,9.63,11.5,14.98,24.84,16.82,39.65.16,1.31.02,2.66.02,3.99Z"/>
        <path d="M264.71,214.22c-9.2-11.75-17.25-23.73-18.76-38.92-1.82-18.26,2.79-34.76,13.62-49.49,1.63-2.22,3.82-4.27,6.2-5.57,1.14-.62,3.64.29,4.99,1.26,2.33,1.66,4.18,3.79,2.19,7.14-2.37,3.98-4.71,8.01-6.62,12.22-9.47,20.95-7.87,41.21,4.51,60.51,4.4,6.87,4.4,7.58-3.04,11.23-1,.49-1.98,1.04-3.1,1.62Z"/>
      </g>
    </g>
  </g>
</svg>