<svg width="863" height="631" viewBox="0 0 863 631" fill="none" xmlns="http://www.w3.org/2000/svg">
<path d="M848.617 312.51C878.987 270.17 852.437 204.68 810.597 183.46C807.347 181.56 806.427 179.69 808.327 176.27C819.417 158.51 811.617 124.81 787.947 124.49C763.117 129.25 814.227 162.03 772.077 175.59C733.407 179.76 697.847 129.73 697.847 129.73C683.847 111.06 670.527 94.42 660.877 83.1C631.367 41.53 574.307 1.43 525.987 38.5C509.507 12.82 470.447 0.03 431.337 0C392.227 0.03 353.167 12.82 336.697 38.51C288.377 1.44 231.317 41.54 201.807 83.11C192.167 94.43 178.837 111.07 164.837 129.74C164.837 129.74 129.277 179.78 90.6072 175.6C48.4572 162.04 99.5572 129.26 74.7372 124.5C51.0672 124.82 43.2672 158.53 54.3572 176.28C56.2572 179.7 55.3372 181.56 52.0872 183.47C10.2472 204.69 -16.3028 270.17 14.0672 312.52C14.0672 312.52 -12.1128 335.77 6.9572 392.52C22.9572 432.08 59.3972 443.19 59.3972 443.19C47.0672 458.9 50.0572 485.51 62.1772 497.57C75.6172 514.08 108.987 505.18 109.947 483.4C110.377 471.57 97.5772 467.91 95.2072 479.32C90.5972 488.76 77.6972 479.58 77.8272 471.55C77.3972 466.1 77.5372 460.94 82.4972 456.81C112.547 439.22 134.197 483.56 146.967 504.52C178.267 565.55 262.487 636.75 330.767 590.35C352.117 620.25 391.897 631.35 431.337 630.19C470.777 631.35 510.557 620.25 531.907 590.35C600.187 636.75 684.407 565.55 715.707 504.52C728.477 483.55 750.127 439.21 780.177 456.81C785.147 460.93 785.287 466.1 784.847 471.55C784.987 479.58 772.087 488.76 767.467 479.32C765.097 467.91 752.297 471.57 752.727 483.4C753.687 505.18 787.057 514.08 800.497 497.57C812.617 485.51 815.607 458.9 803.277 443.19C803.277 443.19 839.717 432.08 855.717 392.52C874.787 335.77 848.607 312.52 848.607 312.52L848.617 312.51ZM821.967 281.93C804.227 262.97 782.647 297.68 798.817 312.12C801.647 315 802.197 316.76 798.827 320.12C787.587 331.34 793.387 354.87 808.537 359.81C817.797 364.86 832.207 352.24 821.347 344.08C816.767 340.39 817.457 334.97 823.227 333.48C847.617 332.67 836.787 378.27 836.787 378.27C826.177 430.75 771.387 428.69 779.087 406.66C780.177 404.46 782.837 402.47 785.217 401.57C804.907 391.15 776.787 369.45 763.927 384.36C750.037 395.59 748.517 415.62 760.087 429.97C687.047 457.11 694.187 575.55 581.347 587.56C566.107 588.37 546.517 582.79 543.917 565.34C542.987 560.83 548.247 560.74 551.547 562.38C560.467 568.14 568.607 555.54 563.517 547.99C547.437 521.8 533.187 550.68 527.527 542.75C511.007 524.7 481.397 521.75 460.337 533.66C444.837 542.9 446.477 566.22 455.567 574.5C474.787 589.29 495.617 573.37 480.437 551.93C502.347 541.54 518.017 569.01 506.017 583.8C487.847 605.33 459.587 613.57 431.337 612.8C403.087 613.57 374.817 605.33 356.657 583.8C344.657 569.02 360.327 541.54 382.237 551.93C367.057 573.37 387.887 589.29 407.107 574.5C416.187 566.22 417.837 542.9 402.337 533.66C381.277 521.76 351.667 524.7 335.147 542.75C329.477 550.67 315.237 521.79 299.157 547.99C294.077 555.54 302.207 568.14 311.127 562.38C314.417 560.74 319.677 560.83 318.757 565.34C316.157 582.78 296.567 588.37 281.327 587.56C168.487 575.55 175.627 457.11 102.587 429.97C114.157 415.62 112.637 395.59 98.7472 384.36C85.8872 369.45 57.7672 391.14 77.4572 401.57C79.8372 402.47 82.4972 404.46 83.5872 406.66C91.2972 428.69 36.4972 430.74 25.8872 378.27C25.8872 378.27 15.0572 332.67 39.4472 333.48C45.2172 334.97 45.8972 340.39 41.3272 344.08C30.4672 352.24 44.8772 364.86 54.1372 359.81C69.2872 354.87 75.0772 331.34 63.8472 320.12C60.4772 316.76 61.0272 314.99 63.8572 312.12C80.0272 297.67 58.4472 262.97 40.7072 281.93C36.6672 287.46 41.8872 291.78 44.7572 295.82C50.4372 305.78 33.9872 305.08 31.3872 297.86C22.2072 286.3 21.2572 273.04 23.6572 259.18C29.2972 234.73 46.7972 206.67 74.2672 205.57C79.6972 205.42 84.5372 208.92 85.1372 213.23C88.3672 225.96 73.8872 235.3 63.0372 228.49C47.2772 221.68 54.2572 250.66 64.6372 252.6C95.2472 264.07 125.567 227.45 110.037 199.08C172.167 191.08 195.437 121.14 224.177 87.08C249.487 57.08 266.217 48.59 286.927 46.7C299.027 45.6 310.527 47.86 315.457 58.38C318.547 64.06 318.687 78.07 309.697 77.6C299.337 75.11 311.047 54.33 291.967 58.26C255.547 82.29 327.837 119.91 342.697 72.07C352.547 81.61 364.307 84.52 376.937 83.57C397.277 84.27 414.767 60.42 399.837 44.17C393.987 34.59 368.727 35.51 375.997 50.38C382.747 59.76 369.487 66.79 363.267 59.81C354.547 47.73 369.537 35.18 379.737 30.73C395.427 22.67 413.417 18.34 431.327 18.26C449.237 18.34 467.227 22.67 482.917 30.73C493.117 35.18 508.107 47.74 499.387 59.81C493.167 66.8 479.907 59.76 486.657 50.38C493.937 35.51 468.677 34.59 462.817 44.17C447.897 60.42 465.377 84.27 485.717 83.57C498.347 84.53 510.107 81.61 519.957 72.07C534.817 119.91 607.107 82.29 570.687 58.26C551.607 54.33 563.317 75.11 552.957 77.6C543.967 78.07 544.107 64.06 547.197 58.38C552.127 47.86 563.627 45.6 575.727 46.7C596.437 48.59 613.167 57.08 638.477 87.08C667.217 121.14 690.497 191.08 752.617 199.08C737.077 227.45 767.407 264.07 798.017 252.6C808.397 250.66 815.387 221.68 799.617 228.49C788.767 235.3 774.287 225.96 777.517 213.23C778.107 208.93 782.947 205.42 788.387 205.57C815.857 206.67 833.357 234.73 838.997 259.18C841.407 273.04 840.447 286.3 831.267 297.86C828.667 305.08 812.217 305.78 817.897 295.82C820.767 291.78 825.987 287.46 821.947 281.93H821.967Z" fill="white"/>
<path d="M553.97 395.036L411.493 252.574C406.139 247.221 404.729 239.235 406.125 231.794C406.605 229.237 406.933 226.651 407.105 224.048C407.653 216.863 406.812 209.64 404.63 202.773C401.925 193.813 396.993 185.685 390.295 179.148C384.303 173.117 377.113 168.41 369.19 165.33C361.267 162.25 352.786 160.866 344.294 161.266H343.121V161.266C333.956 161.604 331.509 172.477 337.989 178.967L353.155 194.158L361.495 202.512L362.227 203.245C365.842 206.866 368.025 211.827 367.125 216.865C366.23 221.867 364.556 226.715 362.147 231.227C361.547 232.141 360.893 233.017 360.188 233.852C359.519 234.643 358.739 235.334 357.891 235.93C352.745 239.546 346.891 241.976 340.749 243.079C335.811 243.966 330.967 241.765 327.423 238.214L301.16 211.91L299.818 210.565C294.909 205.648 286.653 207.48 285.913 214.389V214.389L285.521 217.13C284.2 231.117 287.744 245.131 295.554 256.809C297.821 260.173 300.395 263.319 303.243 266.208C308.638 271.627 315.057 275.918 322.127 278.832C329.197 281.745 336.777 283.222 344.423 283.176C348.272 283.157 352.104 282.792 355.871 282.089C363.34 280.696 371.362 282.092 376.733 287.466L493.113 403.911L518.956 429.689C522.518 433.242 527.344 435.237 532.374 435.237H534.101C539.146 435.237 543.983 433.231 547.547 429.661L553.758 423.44C557.315 419.878 559.312 415.05 559.312 410.016V407.947C559.312 403.106 557.391 398.462 553.97 395.036V395.036ZM369.792 335.131C377.214 327.727 389.232 327.734 396.645 335.147L405.484 343.986C412.904 351.406 412.904 363.436 405.484 370.856L346.433 429.907C342.87 433.471 338.037 435.472 332.998 435.472H324.616C319.577 435.472 314.744 433.47 311.181 429.907L310.545 429.271C306.982 425.708 304.98 420.875 304.98 415.836V407.664C304.98 402.617 306.988 397.777 310.562 394.212L369.792 335.131ZM583.183 229.933C591.581 237.137 592.071 249.965 584.248 257.788L564.489 277.547C557.241 284.795 545.55 284.987 538.067 277.98L530.983 271.346C523.5 264.339 511.809 264.531 504.561 271.78L494.912 281.428C487.493 288.848 475.462 288.848 468.042 281.428L459.184 272.569C451.778 265.164 451.762 253.162 459.147 245.736L468.312 236.521C475.697 229.095 475.681 217.093 468.275 209.688L451.135 192.549C444.491 185.905 444.162 175.24 450.383 168.199V168.199C454.578 163.45 460.984 161.292 467.198 162.535L511.121 171.32C514.316 171.959 517.292 173.409 519.765 175.53L583.183 229.933Z" fill="white"/>
</svg>
